<svg xmlns="http://www.w3.org/2000/svg" viewBox="0 0 32 32" shape-rendering="crispEdges"><path stroke="#ffffff" d="M0 0h32M0 1h32M0 2h32M0 3h32M0 4h32M0 5h32M0 6h32M0 7h32M0 8h32M0 9h32M0 10h32M0 11h32M0 12h32M0 13h32M0 14h32M0 15h32M0 16h32M0 17h32M0 18h32M0 19h32M0 20h32M0 21h32M0 22h32M0 23h32M0 24h32M0 25h32M0 26h32M0 27h32M0 28h32M0 29h32M0 30h32M0 31h32" /><path stroke="#000000" d="M13 7h7M12 8h1M20 8h1M12 9h1M21 9h1M11 10h1M22 10h1M11 11h1M22 11h1M11 12h1M22 12h1M10 13h1M21 13h1M9 14h1M21 14h1M8 15h1M21 15h1M8 16h1M22 16h1M8 17h1M22 17h1M8 18h1M22 18h1M8 19h1M21 19h1M8 20h1M21 20h1M8 21h1M21 21h1M8 22h1M21 22h1M9 23h1M20 23h1M10 24h10M11 25h1M17 25h1M11 26h1M17 26h1M11 27h2M17 27h2" /><path stroke="#7f7f7f" opacity= "0.5" d="M13 26h3M9 27h2M13 27h4M19 27h2M9 28h14M12 29h15M19 30h9" /><path stroke="#efe4b0" d="M13 8h1M15 8h1M17 8h1M19 8h1M13 9h1M15 9h1M17 9h1M19 9h1M13 10h1M15 10h1M17 10h1M19 10h1M21 10h1M13 11h1M15 11h1M17 11h1M19 11h1M21 11h1M13 12h1M15 12h1M17 12h1M19 12h1M21 12h1M11 13h1M13 13h1M15 13h1M17 13h1M19 13h1M11 14h1M13 14h1M15 14h1M17 14h1M19 14h1M9 15h1M11 15h1M13 15h1M15 15h1M17 15h1M19 15h1M9 16h1M11 16h1M13 16h1M15 16h1M17 16h1M19 16h1M21 16h1M9 17h1M11 17h1M13 17h1M15 17h1M17 17h1M19 17h1M21 17h1M9 18h1M11 18h1M13 18h1M15 18h1M17 18h1M19 18h1M21 18h1M9 19h1M11 19h1M13 19h1M15 19h1M17 19h1M19 19h1M9 20h1M11 20h1M13 20h1M15 20h1M17 20h1M19 20h1M9 21h1M11 21h1M13 21h1M15 21h1M17 21h1M19 21h1M9 22h1M11 22h1M13 22h1M15 22h1M17 22h1M19 22h1M11 23h1M13 23h1M15 23h1M17 23h1M19 23h1" /><path stroke="#858585" d="M14 8h1M16 8h1M18 8h1M14 9h1M16 9h1M18 9h1M20 9h1M12 10h1M14 10h1M16 10h1M18 10h1M20 10h1M12 11h1M14 11h1M16 11h1M18 11h1M20 11h1M12 12h1M14 12h1M16 12h1M18 12h1M20 12h1M12 13h1M14 13h1M16 13h1M18 13h1M20 13h1M10 14h1M12 14h1M14 14h1M16 14h1M18 14h1M20 14h1M10 15h1M12 15h1M14 15h1M16 15h1M18 15h1M20 15h1M10 16h1M12 16h1M14 16h1M16 16h1M18 16h1M20 16h1M10 17h1M12 17h1M14 17h1M16 17h1M18 17h1M20 17h1M10 18h1M12 18h1M14 18h1M16 18h1M18 18h1M20 18h1M10 19h1M12 19h1M14 19h1M16 19h1M18 19h1M20 19h1M10 20h1M12 20h1M14 20h1M16 20h1M18 20h1M20 20h1M10 21h1M12 21h1M14 21h1M16 21h1M18 21h1M20 21h1M10 22h1M12 22h1M14 22h1M16 22h1M18 22h1M20 22h1M10 23h1M12 23h1M14 23h1M16 23h1M18 23h1" /> <path stroke="#000000" d="M14 10h3M13 11h1M17 11h1M19 11h5M13 12h1M15 12h1M17 12h1M19 12h1M21 12h1M23 12h1M13 13h1M17 13h1M19 13h1M23 13h1M14 14h3M20 14h3" /><path stroke="#f2f2f2" d="M14 11h3M14 12h1M16 12h1M20 12h1M22 12h1M14 13h3M20 13h3" /><path stroke="#000000" d="M11 17h1M14 17h1M11 18h1M14 18h1M11 19h1M14 19h1M12 20h2" /></svg>