<svg xmlns="http://www.w3.org/2000/svg" viewBox="0 0 32 32" shape-rendering="crispEdges"><path stroke="#93c0fa" d="M0 0h32M0 1h32M0 2h32M0 3h32M0 4h32M0 5h32M0 6h32M0 7h32M0 8h32M0 9h32M0 10h32M0 11h32M0 12h32M0 13h32M0 14h32M0 15h32M0 16h32M0 17h32M0 18h32M0 19h32M0 20h32M0 21h32M0 22h32M0 23h32M0 24h32M0 25h32M0 26h32M0 27h32M0 28h32M0 29h32M0 30h32M0 31h32" /><path stroke="#000000" d="M13 7h7M12 8h1M20 8h1M12 9h1M21 9h1M11 10h1M22 10h1M11 11h1M22 11h1M11 12h1M22 12h1M10 13h1M21 13h1M9 14h1M21 14h1M8 15h1M21 15h1M8 16h1M22 16h1M8 17h1M22 17h1M8 18h1M22 18h1M8 19h1M21 19h1M8 20h1M21 20h1M8 21h1M21 21h1M8 22h1M21 22h1M9 23h1M20 23h1M10 24h10M11 25h1M17 25h1M11 26h1M17 26h1M11 27h2M17 27h2" /><path stroke="#7f7f7f" opacity= "0.5" d="M13 26h3M9 27h2M13 27h4M19 27h2M9 28h14M12 29h15M19 30h9" /><path stroke="#c3c3c3" d="M13 8h7M13 9h8M12 10h10M12 11h10M12 12h10M11 13h10M10 14h11M9 15h12M9 16h13M9 17h13M9 18h13M9 19h12M9 20h12M9 21h12M9 22h12M10 23h10" /><path stroke="#000000" d="M14 3h6M13 4h4M20 4h1M13 5h3M20 5h1M10 6h6M21 6h3M10 7h8M23 7h1M10 8h14" /><path stroke="#7f7f7f" d="M17 4h3M16 5h4M16 6h5M18 7h5" /><path stroke="#000000" d="M13 10h4M18 10h4M10 11h4M16 11h3M21 11h1M10 12h1M13 12h1M16 12h1M18 12h1M21 12h1M13 13h4M18 13h4" /><path stroke="#ed1c24" d="M14 11h2M14 12h2" /><path stroke="#3f48cc" d="M19 11h2M19 12h2" /><path stroke="#000000" d="M13 12h3M13 13h1M16 13h1M13 14h3M13 15h1M12 16h3M15 17h1M15 18h1M12 19h3" /><path stroke="#b5e61d" d="M14 13h2" /></svg>