<svg xmlns="http://www.w3.org/2000/svg" viewBox="0 0 32 32" shape-rendering="crispEdges"><path stroke="#ffd4ff" d="M0 0h32M0 1h31M0 2h30M0 3h29M0 4h28M0 5h27M0 6h26M0 7h25M0 8h24M0 9h23M0 10h22M0 11h21M0 12h20M0 13h19M0 14h18M0 15h17M0 16h16M0 17h15M0 18h14M0 19h13M0 20h12M0 21h11M0 22h10M0 23h9M0 24h8M0 25h7M0 26h6M0 27h5M0 28h4M0 29h3M0 30h2M0 31h1"/><path stroke="#f2c9f2" d="M31 1h1M30 2h2M29 3h3M28 4h4M27 5h5M26 6h6M25 7h7M24 8h8M23 9h9M22 10h10M21 11h11M20 12h12M19 13h13M18 14h14M17 15h15M16 16h16M15 17h17M14 18h18M13 19h19M12 20h20M11 21h21M10 22h22M9 23h23M8 24h24M7 25h25M6 26h26M5 27h27M4 28h28M3 29h29M2 30h30M1 31h31"/><path stroke="#000000" d="M13 7h7M12 8h1M20 8h1M12 9h1M21 9h1M11 10h1M22 10h1M11 11h1M22 11h1M11 12h1M22 12h1M10 13h1M21 13h1M9 14h1M21 14h1M8 15h1M21 15h1M8 16h1M22 16h1M8 17h1M22 17h1M8 18h1M22 18h1M8 19h1M21 19h1M8 20h1M21 20h1M8 21h1M21 21h1M8 22h1M21 22h1M9 23h1M20 23h1M10 24h10M11 25h1M17 25h1M11 26h1M17 26h1M11 27h2M17 27h2"/><path stroke="#7f7f7f" opacity="0.5" d="M13 26h3M9 27h2M13 27h4M19 27h2M9 28h14M12 29h15M19 30h9"/><path stroke="#c9ff20" d="M13 8h4M18 8h2M13 9h1M15 9h6M13 10h7M21 10h1M12 11h10M12 12h3M16 12h6M11 13h7M19 13h2M10 14h1M12 14h9M9 15h12M9 16h3M13 16h7M21 16h1M9 17h6M16 17h1M18 17h4M9 18h1M11 18h11M9 19h12M9 20h3M13 20h3M17 20h1M19 20h2M9 21h12M10 22h8M19 22h2M10 23h2M13 23h7"/><path stroke="#b5e61d" d="M17 8h1M14 9h1M12 10h1M20 10h1M15 12h1M18 13h1M11 14h1M12 16h1M20 16h1M15 17h1M17 17h1M10 18h1M12 20h1M16 20h1M18 20h1M9 22h1M18 22h1M12 23h1"/><path stroke="#000000" d="M13 2h8M11 3h2M21 3h2M9 4h2M23 4h1M8 5h1M23 5h1M8 6h1M24 6h1M8 7h1M24 7h1M8 8h1M24 8h1M8 9h1M24 9h1M8 10h1M24 10h1M8 11h1M24 11h1M9 12h2M23 12h1"/><path stroke="#fff200" d="M13 3h8M11 4h12M9 5h14M9 6h15M9 7h4M20 7h4M9 8h3M21 8h3M9 9h3M22 9h2M9 10h2M23 10h1M9 11h2M23 11h1"/><path stroke="#000000" d="M14 10h3M20 10h3M13 11h1M17 11h1M19 11h1M23 11h1M13 12h1M15 12h3M19 12h1M21 12h3M13 13h1M17 13h1M19 13h1M23 13h1M14 14h3M20 14h3"/><path stroke="#f2f2f2" d="M14 11h3M20 11h3M14 12h1M20 12h1M14 13h3M20 13h3"/><path stroke="#000000" d="M11 17h1M14 17h1M11 18h1M14 18h1M11 19h1M14 19h1M12 20h2"/></svg>