<svg xmlns="http://www.w3.org/2000/svg" viewBox="0 0 32 32" shape-rendering="crispEdges"><path stroke="#ffffff" d="M0 0h32M0 1h32M0 2h32M0 3h32M0 4h32M0 5h32M0 6h32M0 7h32M0 8h32M0 9h32M0 10h32M0 11h32M0 12h32M0 13h32M0 14h32M0 15h32M0 16h32M0 17h32M0 18h32M0 19h32M0 20h32M0 21h32M0 22h32M0 23h32M0 24h32M0 25h32M0 26h32M0 27h32M0 28h32M0 29h32M0 30h32M0 31h32" /><path stroke="#99d9ea" d="M1 0h2M8 0h2M15 0h2M22 0h2M29 0h2M0 1h1M3 1h1M7 1h1M10 1h1M14 1h1M17 1h1M21 1h1M24 1h1M28 1h1M31 1h1M0 2h1M3 2h1M7 2h1M10 2h1M14 2h1M17 2h1M21 2h1M24 2h1M28 2h1M31 2h1M1 3h2M8 3h2M15 3h2M22 3h2M29 3h2M3 7h2M10 7h2M17 7h2M24 7h2M31 7h1M2 8h1M5 8h1M9 8h1M12 8h1M16 8h1M19 8h1M23 8h1M26 8h1M30 8h1M2 9h1M5 9h1M9 9h1M12 9h1M16 9h1M19 9h1M23 9h1M26 9h1M30 9h1M3 10h2M10 10h2M17 10h2M24 10h2M31 10h1M5 14h2M12 14h2M19 14h2M26 14h2M0 15h1M4 15h1M7 15h1M11 15h1M14 15h1M18 15h1M21 15h1M25 15h1M28 15h1M0 16h1M4 16h1M7 16h1M11 16h1M14 16h1M18 16h1M21 16h1M25 16h1M28 16h1M5 17h2M12 17h2M19 17h2M26 17h2M0 21h2M7 21h2M14 21h2M21 21h2M28 21h2M2 22h1M6 22h1M9 22h1M13 22h1M16 22h1M20 22h1M23 22h1M27 22h1M30 22h1M2 23h1M6 23h1M9 23h1M13 23h1M16 23h1M20 23h1M23 23h1M27 23h1M30 23h1M0 24h2M7 24h2M14 24h2M21 24h2M28 24h2M2 28h2M9 28h2M16 28h2M23 28h2M30 28h2M1 29h1M4 29h1M8 29h1M11 29h1M15 29h1M18 29h1M22 29h1M25 29h1M29 29h1M1 30h1M4 30h1M8 30h1M11 30h1M15 30h1M18 30h1M22 30h1M25 30h1M29 30h1M2 31h2M9 31h2M16 31h2M23 31h2M30 31h2" /><path stroke="#8ec9d9" d="M1 1h2M8 1h2M15 1h2M22 1h2M29 1h2M1 2h2M8 2h2M15 2h2M22 2h2M29 2h2M3 8h2M10 8h2M17 8h2M24 8h2M31 8h1M3 9h2M10 9h2M17 9h2M24 9h2M31 9h1M5 15h2M12 15h2M19 15h2M26 15h2M5 16h2M12 16h2M19 16h2M26 16h2M0 22h2M7 22h2M14 22h2M21 22h2M28 22h2M0 23h2M7 23h2M14 23h2M21 23h2M28 23h2M2 29h2M9 29h2M16 29h2M23 29h2M30 29h2M2 30h2M9 30h2M16 30h2M23 30h2M30 30h2" /><path stroke="#000000" d="M13 7h7M12 8h1M20 8h1M12 9h1M21 9h1M11 10h1M22 10h1M11 11h1M22 11h1M11 12h1M22 12h1M10 13h1M21 13h1M9 14h1M21 14h1M8 15h1M21 15h1M8 16h1M22 16h1M8 17h1M22 17h1M8 18h1M22 18h1M8 19h1M21 19h1M8 20h1M21 20h1M8 21h1M21 21h1M8 22h1M21 22h1M9 23h1M20 23h1M10 24h10M11 25h1M17 25h1M11 26h1M17 26h1M11 27h2M17 27h2" /><path stroke="#7f7f7f" opacity= "0.5" d="M13 26h3M9 27h2M13 27h4M19 27h2M9 28h14M12 29h15M19 30h9" /><path stroke="#fff200" d="M13 8h7M13 9h8M12 10h10M12 11h10M12 12h10M11 13h10M10 14h11M9 15h12M9 16h13M9 17h13M9 18h13M9 19h12M9 20h12M9 21h12M9 22h12M10 23h10" /><path stroke="#000000" d="M13 2h8M11 3h2M21 3h2M9 4h2M23 4h1M8 5h1M23 5h1M8 6h1M24 6h1M8 7h1M24 7h1M8 8h1M24 8h1M8 9h1M24 9h1M8 10h1M24 10h1M8 11h1M24 11h1M9 12h2M23 12h1" /><path stroke="#fff200" d="M13 3h8M11 4h12M9 5h14M9 6h15M9 7h4M20 7h4M9 8h3M21 8h3M9 9h3M22 9h2M9 10h2M23 10h1M9 11h2M23 11h1" /><path stroke="#000000" d="M14 10h3M20 10h3M13 11h1M17 11h1M19 11h1M23 11h1M13 12h1M15 12h3M19 12h1M21 12h3M13 13h1M17 13h1M19 13h1M23 13h1M14 14h3M20 14h3" /><path stroke="#f2f2f2" d="M14 11h3M20 11h3M14 12h1M20 12h1M14 13h3M20 13h3" /><path stroke="#000000" d="M11 17h1M14 17h1M11 18h1M14 18h1M11 19h1M14 19h1M12 20h2" /><path stroke="#fff200" d="M15 19h1M14 20h3M13 21h5M14 22h3M15 23h1" /></svg>